<svg width="32" height="32" viewBox="0 0 32 32" fill="none" xmlns="http://www.w3.org/2000/svg">
  <path d="M24.9354 7.0645C21.8084 8.10869 17.9111 10.6656 14.2877 14.289C10.6643 17.9124 8.1074 21.8083 7.06599 24.9367C4.76488 25.7028 2.8795 25.6499 1.82419 24.596C0.319779 23.0916 0.852301 19.8937 2.90314 16.2091C5.1667 16.0034 8.38686 14.1903 11.29 11.2885C14.1918 8.38677 16.0021 5.16661 16.2106 2.90165C19.8938 0.850813 23.0889 0.3169 24.5947 1.8227C25.6486 2.87662 25.7043 4.762 24.9354 7.0645ZM30.1772 7.40515C29.1233 6.35123 27.2379 6.29839 24.9354 7.0645C23.894 10.1915 21.337 14.0888 17.7137 17.7122C14.0903 21.3355 10.1944 23.8953 7.06599 24.9367C6.29988 27.2378 6.35271 29.1232 7.40663 30.1785C8.91105 31.6829 12.1062 31.1504 15.7907 29.0995C15.9979 26.836 17.811 23.6158 20.7141 20.7126C23.6159 17.8109 26.8347 16.0006 29.0982 15.792C31.1491 12.1089 31.683 8.91095 30.1772 7.40515ZM31.3534 16.4205C30.8348 15.9019 30.0506 15.7044 29.0968 15.792C27.7621 18.196 25.7793 20.81 23.2947 23.2946C20.8101 25.7806 18.1961 27.7647 15.7893 29.0995C15.7017 30.0506 15.8992 30.8347 16.4178 31.3534C18.1711 33.1066 22.936 31.1851 27.0599 27.0612C31.181 22.9373 33.1054 18.1738 31.3521 16.4219L31.3534 16.4205ZM15.5836 0.649205C13.8303 -1.10409 9.06538 0.817443 4.94424 4.94136C0.818932 9.06528 -1.10399 13.8274 0.647913 15.5835C1.16653 16.1021 1.95072 16.2995 2.90453 16.2091C4.23931 13.8051 6.22202 11.1912 8.70666 8.70656C11.1913 6.22192 13.8052 4.23643 16.212 2.90165C16.2996 1.95062 16.1022 1.16643 15.5836 0.647814V0.649205Z" fill="#3263E9"/>
</svg>

